<?xml version="1.0" standalone="no"?>
<!DOCTYPE svg PUBLIC "-//W3C//DTD SVG 20010904//EN"
 "http://www.w3.org/TR/2001/REC-SVG-20010904/DTD/svg10.dtd">
<svg version="1.0" xmlns="http://www.w3.org/2000/svg"
 width="858.000000pt" height="858.000000pt" viewBox="0 0 858.000000 858.000000"
 preserveAspectRatio="xMidYMid meet">
<metadata>
Created by potrace 1.14, written by Peter Selinger 2001-2017
</metadata>
<g transform="translate(0.000000,858.000000) scale(0.100000,-0.100000)"
fill="#000000" stroke="none">
<path d="M6120 8545 c0 -15 -2 -17 -9 -6 -6 9 -11 10 -15 2 -4 -6 -12 -9 -17
-6 -5 4 -9 2 -9 -3 0 -6 -10 -8 -22 -4 -15 4 -19 2 -13 -7 6 -10 3 -11 -14 -2
-16 9 -21 9 -21 -1 0 -11 -2 -11 -8 0 -6 9 -16 10 -33 4 -13 -5 -30 -7 -36 -5
-7 3 -13 1 -13 -4 0 -5 -18 -8 -40 -6 -26 1 -38 -2 -34 -9 4 -6 -1 -6 -14 1
-16 9 -24 8 -36 -5 -12 -12 -16 -12 -16 -2 0 8 -3 9 -8 3 -4 -6 -16 -11 -27
-11 -12 0 -19 -6 -17 -14 3 -11 0 -11 -12 0 -9 7 -16 8 -16 2 0 -5 -7 -13 -16
-16 -8 -3 -13 -2 -10 2 3 5 -1 9 -9 9 -8 0 -12 -4 -9 -8 2 -4 0 -10 -6 -14 -5
-3 -10 0 -10 7 0 8 -3 9 -8 3 -7 -10 -28 -15 -69 -18 -13 -1 -23 -6 -23 -11 0
-4 -6 -6 -14 -3 -8 3 -16 1 -18 -4 -2 -5 -26 -12 -53 -15 -28 -2 -52 -9 -53
-14 -2 -6 -8 -7 -13 -4 -6 3 -17 0 -26 -7 -8 -8 -28 -12 -44 -11 -16 2 -29 -1
-29 -6 0 -6 -8 -9 -17 -8 -10 2 -38 -3 -62 -10 -25 -7 -48 -11 -53 -8 -4 3 -8
0 -8 -6 0 -7 -6 -10 -14 -7 -7 3 -19 0 -25 -6 -6 -6 -11 -8 -11 -4 0 3 -20 0
-44 -7 -33 -10 -48 -11 -57 -2 -9 8 -10 8 -5 -1 5 -9 0 -13 -14 -13 -14 0 -19
-4 -14 -12 6 -10 4 -10 -8 0 -10 8 -18 9 -22 3 -4 -6 -13 -8 -21 -4 -8 3 -15
0 -15 -5 0 -6 -9 -9 -19 -7 -11 2 -25 -3 -32 -11 -9 -11 -15 -12 -25 -3 -8 6
-14 7 -14 2 0 -10 -8 -12 -60 -15 -16 -1 -30 -5 -30 -10 0 -5 -9 -4 -20 2 -11
6 -20 7 -20 2 0 -5 -13 -8 -30 -7 -16 1 -30 -2 -30 -7 0 -5 -4 -6 -10 -3 -5 3
-10 1 -10 -5 0 -6 -4 -8 -10 -5 -5 3 -10 1 -10 -4 0 -6 -6 -11 -14 -11 -8 0
-21 -7 -30 -15 -9 -10 -17 -11 -21 -5 -4 6 -12 4 -21 -5 -9 -8 -20 -13 -25
-10 -5 4 -9 2 -9 -4 0 -5 -11 -8 -25 -7 -13 2 -23 -2 -22 -8 1 -6 -4 -10 -12
-8 -7 1 -19 -3 -27 -9 -11 -9 -14 -8 -14 2 0 8 -6 5 -14 -7 -10 -14 -25 -20
-45 -19 -17 1 -31 -2 -31 -8 0 -5 -7 -6 -15 -3 -9 3 -18 -1 -22 -10 -5 -13 -7
-13 -14 -2 -7 10 -9 11 -9 0 0 -7 -5 -10 -10 -7 -6 4 -17 2 -25 -5 -7 -6 -19
-10 -27 -9 -24 3 -39 -1 -35 -8 3 -5 -7 -8 -21 -9 -39 -1 -82 -11 -96 -23 -7
-6 -16 -8 -19 -4 -4 3 -14 0 -24 -8 -15 -12 -16 -12 -8 1 8 13 7 13 -8 1 -9
-7 -17 -10 -17 -6 0 4 -6 2 -14 -4 -11 -9 -16 -9 -22 0 -4 8 -3 9 4 5 7 -4 12
-2 12 3 0 6 -9 11 -19 11 -10 0 -33 13 -50 29 -17 16 -31 24 -32 18 0 -7 -4
-2 -9 11 -5 12 -16 22 -24 22 -7 0 -16 7 -20 15 -3 8 -9 14 -13 13 -4 -2 -9 2
-11 7 -5 15 -45 34 -57 28 -5 -4 -7 -3 -3 2 13 13 -25 34 -62 35 -27 0 -37 -5
-46 -24 -7 -16 -8 -30 -1 -41 7 -13 6 -16 -2 -11 -7 5 -9 1 -5 -8 3 -9 10 -16
15 -16 5 0 9 -5 9 -11 0 -5 -4 -8 -8 -5 -5 3 -9 -1 -9 -9 0 -8 4 -12 8 -10 4
3 9 -1 12 -9 4 -11 -2 -13 -24 -11 -17 3 -27 0 -24 -5 11 -18 -4 -10 -26 13
-12 12 -19 16 -15 10 5 -9 2 -11 -8 -7 -9 3 -13 11 -9 17 3 5 1 7 -5 4 -14 -9
-43 3 -36 14 4 8 -8 11 -32 8 -3 0 -14 10 -25 22 -10 12 -19 18 -19 14 0 -4
-8 -1 -17 8 -10 8 -25 17 -33 19 -8 2 -21 9 -28 16 -8 7 -18 10 -23 7 -5 -4
-9 0 -9 7 0 11 -2 10 -9 0 -6 -11 -10 -10 -15 3 -3 10 -12 15 -21 11 -8 -3
-15 -1 -15 4 0 6 -9 10 -20 10 -11 0 -20 5 -20 10 0 6 -7 10 -15 10 -8 0 -34
11 -57 24 -24 13 -52 26 -63 28 -11 1 -26 10 -33 18 -12 13 -13 13 -6 0 5 -10
0 -9 -14 4 -12 11 -22 16 -22 12 0 -4 -7 0 -16 8 -8 9 -19 14 -24 11 -5 -3
-10 0 -12 5 -2 6 -12 12 -21 14 -10 1 -23 9 -28 17 -7 12 -9 12 -9 0 0 -11 -4
-10 -16 5 -8 10 -13 12 -9 4 5 -12 4 -12 -7 1 -7 9 -19 14 -25 12 -7 -3 -13 1
-13 7 0 7 -6 10 -14 7 -7 -3 -19 0 -25 6 -6 6 -11 7 -11 3 0 -5 -8 -2 -17 5
-15 12 -16 12 -8 -1 6 -12 5 -13 -5 -3 -10 9 -18 9 -34 1 -12 -6 -23 -12 -26
-12 -3 -1 -4 -5 -2 -10 2 -5 -4 -4 -12 4 -14 11 -16 9 -16 -10 0 -16 -4 -21
-16 -16 -11 4 -15 2 -11 -8 3 -8 -1 -17 -9 -20 -10 -4 -13 -2 -8 7 5 8 2 8 -9
-2 -9 -7 -14 -17 -11 -22 3 -5 2 -9 -3 -9 -4 0 -13 -11 -20 -25 -8 -19 -8 -23
0 -18 9 5 9 3 1 -8 -6 -8 -11 -26 -10 -41 1 -14 -1 -25 -5 -22 -8 4 -20 -20
-26 -51 -2 -11 -10 -23 -18 -28 -9 -4 -13 -12 -10 -18 4 -5 1 -9 -5 -9 -6 0
-8 -4 -5 -10 3 -5 -1 -10 -10 -10 -9 0 -13 -4 -10 -10 3 -5 -5 -21 -19 -35
-14 -14 -22 -25 -18 -25 4 -1 -3 -9 -15 -19 -12 -10 -19 -21 -16 -25 4 -3 1
-6 -5 -6 -7 0 -12 -5 -12 -11 0 -6 -6 -17 -13 -24 -22 -25 -32 -40 -46 -67 -8
-16 -18 -28 -23 -28 -5 0 -7 -4 -4 -8 3 -5 -3 -18 -14 -29 -10 -12 -17 -23
-14 -25 2 -3 -5 -13 -16 -23 -11 -10 -20 -24 -20 -32 0 -7 -4 -13 -8 -13 -4 0
-24 -25 -43 -55 -18 -30 -38 -55 -43 -55 -4 0 -6 -7 -3 -14 4 -11 1 -13 -10
-9 -12 5 -15 2 -10 -10 6 -15 -4 -22 -18 -14 -2 1 -11 -7 -20 -18 -9 -11 -13
-13 -9 -5 7 13 5 13 -9 1 -12 -9 -17 -10 -17 -2 0 7 -5 9 -12 5 -7 -4 -23 -9
-36 -10 -13 -2 -31 -9 -40 -16 -13 -11 -14 -11 -7 2 7 12 6 13 -7 3 -8 -7 -18
-10 -21 -6 -4 3 -7 2 -7 -4 0 -10 -14 -13 -57 -14 -12 -1 -24 -8 -27 -16 -4
-11 -10 -11 -26 -3 -12 6 -20 7 -20 1 0 -5 -11 -8 -25 -6 -14 1 -25 -1 -25 -6
0 -5 -6 -6 -14 -3 -8 3 -17 1 -20 -5 -4 -7 -15 -7 -31 -1 -16 6 -27 6 -31 -1
-3 -6 -12 -8 -20 -5 -8 3 -14 1 -14 -5 0 -6 -7 -6 -20 1 -11 6 -20 7 -20 2 0
-5 -13 -8 -30 -7 -17 1 -27 -2 -23 -8 4 -6 0 -8 -10 -4 -10 3 -17 2 -17 -3 0
-5 -7 -7 -15 -4 -8 3 -20 2 -27 -2 -7 -4 -19 -9 -28 -10 -32 -5 -59 -13 -88
-28 -16 -8 -32 -12 -36 -9 -3 4 -6 -1 -6 -11 0 -9 -4 -15 -9 -12 -4 3 -13 -6
-19 -19 -7 -14 -16 -25 -22 -25 -6 0 -9 -4 -6 -9 3 -5 -1 -12 -10 -15 -9 -4
-14 -9 -11 -12 3 -4 -1 -13 -9 -21 -8 -8 -12 -19 -9 -24 4 -5 1 -9 -6 -9 -7 0
-10 -3 -6 -6 3 -4 0 -22 -8 -40 -8 -19 -14 -37 -15 -39 0 -3 0 -6 -1 -7 -3
-10 -10 -56 -10 -70 0 -10 -6 -18 -12 -18 -7 0 -6 -4 3 -10 11 -7 11 -10 2
-10 -7 0 -10 -5 -7 -10 4 -6 1 -17 -5 -25 -10 -12 -10 -15 0 -15 9 0 9 -4 3
-12 -6 -7 -11 -20 -11 -28 -3 -41 -10 -82 -15 -87 -4 -3 -2 -15 4 -26 8 -15 8
-18 -1 -12 -9 5 -10 1 -5 -14 4 -14 2 -21 -7 -21 -10 0 -9 -3 2 -10 8 -5 10
-10 4 -10 -6 0 -11 -10 -11 -22 0 -24 -8 -50 -24 -80 -5 -10 -5 -18 -1 -18 5
0 9 -7 9 -15 0 -8 -4 -12 -9 -9 -4 3 -8 -3 -8 -13 -1 -23 -25 -55 -34 -46 -4
4 -4 -1 0 -11 5 -14 4 -17 -4 -12 -7 4 -12 1 -12 -9 0 -8 -7 -18 -16 -22 -8
-3 -13 -12 -10 -20 4 -8 -4 -17 -19 -23 -14 -5 -25 -12 -25 -15 0 -4 6 -3 13
1 6 4 4 -2 -6 -14 -11 -11 -16 -26 -12 -31 3 -6 2 -11 -2 -11 -10 0 -9 -37 2
-62 4 -10 11 -16 15 -13 5 3 6 -4 3 -15 -4 -15 0 -20 13 -20 16 0 17 -2 4 -10
-14 -9 -7 -15 14 -11 5 1 6 -5 3 -13 -4 -9 -2 -18 4 -21 5 -4 7 -11 3 -16 -3
-5 0 -17 8 -26 9 -12 9 -15 1 -9 -9 5 -13 0 -13 -14 0 -12 3 -19 8 -17 4 3 7
-38 6 -92 0 -53 4 -102 9 -108 6 -9 5 -13 -4 -13 -9 0 -10 -3 -4 -8 15 -11 17
-32 4 -48 -9 -11 -9 -14 0 -14 7 0 9 -5 4 -12 -14 -23 -14 -50 -1 -42 9 5 9 2
-1 -9 -9 -12 -10 -17 -2 -17 9 0 9 -5 0 -21 -8 -16 -8 -20 1 -14 9 6 9 3 1
-12 -6 -11 -7 -24 -3 -28 4 -5 1 -5 -5 -1 -8 5 -13 1 -13 -9 0 -11 -5 -15 -16
-11 -8 3 -12 2 -9 -4 3 -6 1 -10 -5 -10 -6 0 -9 -4 -6 -9 8 -13 -4 -42 -15
-35 -5 3 -9 1 -9 -5 0 -6 -7 -8 -15 -5 -8 4 -17 -1 -21 -10 -3 -9 -10 -13 -15
-11 -9 6 -62 -25 -55 -32 2 -2 -7 -15 -21 -29 -13 -13 -21 -29 -17 -36 4 -6 3
-8 -3 -5 -5 4 -16 -5 -23 -18 -7 -13 -18 -22 -23 -18 -6 3 -7 1 -3 -5 3 -6 2
-13 -4 -17 -6 -4 -8 -10 -5 -15 3 -5 -4 -11 -15 -15 -11 -3 -20 -13 -20 -20 0
-8 -11 -26 -25 -41 -14 -15 -25 -33 -25 -40 0 -8 -4 -14 -10 -14 -5 0 -10 -5
-10 -11 0 -7 -10 -20 -22 -30 -11 -11 -17 -19 -13 -19 4 0 -2 -8 -13 -19 -12
-10 -22 -23 -22 -30 0 -6 -5 -11 -11 -11 -5 0 -8 -4 -4 -9 3 -5 1 -12 -5 -16
-6 -4 -7 -11 -4 -17 4 -7 2 -8 -4 -4 -11 6 -16 -6 -13 -26 0 -5 -2 -7 -7 -5
-4 1 -8 -2 -9 -6 -1 -5 -11 -17 -22 -26 -11 -10 -18 -21 -14 -25 3 -3 0 -6 -7
-6 -7 0 -11 -3 -7 -6 3 -4 -2 -14 -11 -23 -12 -11 -13 -13 -2 -7 8 5 3 -3 -12
-17 -15 -14 -24 -28 -21 -31 4 -3 1 -6 -5 -6 -7 0 -12 -6 -12 -14 0 -7 -10
-24 -22 -37 -13 -14 -24 -27 -25 -29 -1 -3 -5 -13 -8 -22 -4 -10 -11 -16 -15
-13 -5 3 -12 0 -16 -6 -4 -8 -3 -9 4 -5 24 15 11 -7 -20 -35 -23 -21 -27 -28
-13 -23 18 6 17 4 -3 -10 -12 -10 -20 -22 -17 -27 4 -5 -2 -9 -12 -9 -15 0
-16 -2 -3 -10 11 -7 11 -10 2 -10 -7 0 -10 -5 -7 -10 4 -6 1 -9 -5 -8 -7 2
-14 -6 -16 -17 -1 -11 -9 -24 -17 -30 -7 -5 -13 -20 -12 -32 1 -13 -4 -23 -12
-23 -7 0 -13 -9 -13 -20 0 -11 -4 -20 -10 -20 -5 0 -7 -7 -4 -15 4 -8 1 -15
-6 -15 -6 0 -10 -6 -7 -12 2 -7 -3 -19 -12 -26 -12 -10 -13 -12 -1 -6 13 7 13
5 1 -9 -11 -14 -11 -17 0 -17 8 0 6 -5 -5 -13 -18 -13 -18 -15 5 -37 13 -13
18 -20 12 -16 -9 5 -11 2 -7 -8 3 -9 10 -13 15 -10 5 3 9 -4 9 -16 0 -12 3
-19 8 -17 4 3 18 -12 31 -34 14 -21 28 -36 33 -33 4 3 8 -2 8 -10 0 -9 5 -16
10 -16 6 0 10 -7 10 -16 0 -8 5 -12 10 -9 8 5 15 -10 8 -18 -2 -1 11 -16 27
-32 17 -17 37 -42 44 -57 8 -15 17 -25 21 -23 5 3 11 -2 14 -11 4 -10 2 -13
-7 -8 -6 4 -1 -5 12 -19 14 -15 22 -30 18 -33 -3 -3 6 -17 21 -31 15 -14 18
-19 7 -12 -20 14 -20 14 -1 -9 11 -13 21 -30 22 -39 2 -9 6 -19 11 -22 8 -6
15 -27 16 -48 0 -7 5 -13 10 -13 5 0 7 -9 4 -20 -3 -14 0 -20 11 -20 8 0 13
-3 10 -6 -4 -3 -2 -19 2 -35 6 -20 5 -29 -3 -29 -7 0 -6 -4 3 -10 8 -5 10 -10
5 -10 -6 0 -11 -8 -12 -17 -1 -10 -3 -27 -6 -38 -2 -11 1 -23 7 -27 7 -5 5 -8
-5 -8 -11 0 -15 -8 -14 -24 2 -15 -3 -27 -12 -30 -12 -5 -13 -9 -3 -21 10 -12
10 -15 0 -15 -8 0 -10 -3 -7 -6 3 -4 2 -15 -3 -25 -7 -11 -7 -20 0 -24 6 -4 5
-14 -4 -28 -8 -12 -12 -30 -11 -39 2 -10 -1 -18 -6 -18 -5 0 -7 -11 -5 -25 3
-14 0 -25 -5 -25 -6 0 -7 -4 -4 -10 3 -5 1 -19 -6 -31 -9 -17 -8 -20 3 -13 11
7 11 5 0 -9 -8 -9 -11 -21 -7 -27 3 -5 1 -10 -6 -10 -8 0 -7 -5 2 -17 8 -9 9
-14 2 -10 -16 10 -22 -14 -10 -37 7 -15 6 -18 -7 -13 -17 7 -18 -13 -1 -25 6
-5 6 -8 -2 -8 -6 0 -10 -8 -8 -17 1 -10 -3 -24 -9 -32 -8 -11 -8 -13 2 -7 6 4
12 2 12 -3 0 -6 -3 -11 -7 -11 -5 0 -9 -14 -10 -32 -1 -17 -8 -35 -15 -40 -10
-6 -10 -8 1 -8 11 0 11 -3 1 -15 -7 -8 -9 -15 -4 -15 4 0 3 -5 -3 -11 -6 -6
-9 -18 -6 -25 3 -8 -1 -14 -8 -14 -12 0 -12 -2 0 -9 9 -6 10 -11 2 -15 -6 -4
-11 -12 -11 -17 0 -6 4 -8 10 -4 5 3 3 -7 -5 -21 -8 -15 -12 -31 -9 -36 3 -5
0 -16 -8 -25 -11 -14 -11 -16 1 -8 11 6 12 5 5 -6 -10 -17 -13 -99 -3 -99 3 0
5 -13 3 -30 -2 -17 1 -30 7 -30 6 0 7 -5 4 -11 -4 -6 2 -19 14 -30 12 -11 21
-15 21 -9 0 5 9 1 20 -10 10 -10 28 -17 40 -15 13 3 20 -1 20 -12 0 -12 3 -13
14 -4 10 9 15 8 19 -3 3 -8 14 -13 24 -12 10 2 21 -1 24 -6 3 -5 16 -10 27
-11 12 -1 22 -4 22 -8 0 -7 56 -23 78 -22 6 0 12 -3 12 -7 0 -10 40 -25 58
-22 6 2 12 -2 12 -9 0 -8 5 -7 17 2 11 10 14 10 9 2 -6 -12 5 -18 27 -14 4 0
7 -4 7 -11 0 -6 3 -8 7 -5 3 4 12 2 20 -4 7 -6 13 -9 13 -5 0 4 17 -2 39 -13
21 -11 41 -17 45 -14 3 4 6 1 6 -6 0 -7 3 -10 8 -8 11 7 110 -43 140 -71 8 -7
21 -11 28 -8 8 3 14 2 14 -3 0 -4 21 -9 48 -10 26 0 58 -4 72 -7 14 -3 39 -7
55 -9 17 -3 37 -6 45 -8 8 -2 36 -7 62 -11 27 -5 48 -12 48 -16 0 -3 17 -8 38
-9 20 -2 45 -3 55 -4 9 -1 17 -5 17 -9 0 -4 11 -8 25 -8 14 0 25 -5 25 -10 0
-6 3 -9 7 -9 19 3 36 -2 30 -8 -4 -3 0 -17 9 -31 9 -13 11 -21 4 -17 -8 5 -8
1 1 -13 7 -11 19 -18 26 -15 7 3 13 0 13 -7 0 -6 4 -8 10 -5 15 9 76 -24 79
-43 1 -9 2 -32 3 -49 1 -18 4 -33 8 -33 3 0 7 -10 7 -22 1 -13 3 -38 5 -56 2
-17 1 -32 -3 -32 -3 0 -5 -13 -3 -30 2 -18 -1 -30 -8 -30 -7 0 -4 -6 7 -13 12
-9 14 -16 7 -21 -6 -4 -9 -13 -6 -21 4 -8 10 -12 15 -9 5 3 6 -2 3 -10 -4 -9
0 -18 9 -22 9 -3 13 -12 10 -20 -4 -10 0 -12 11 -8 14 5 17 1 16 -21 -1 -3 12
-19 27 -35 53 -56 53 -56 53 -96 0 -14 4 -23 9 -20 5 3 9 -4 9 -17 1 -28 7
-57 16 -79 4 -9 5 -22 1 -28 -3 -5 -2 -10 4 -10 6 0 7 -7 4 -17 -5 -12 -3 -14
7 -8 9 5 11 4 6 -4 -4 -6 -2 -19 6 -28 9 -12 9 -15 0 -9 -16 10 -16 -9 1 -23
8 -6 14 -27 15 -46 1 -19 6 -44 12 -55 8 -14 8 -20 0 -20 -6 0 -8 -5 -5 -10 4
-6 10 -8 15 -5 4 3 11 -2 14 -11 4 -10 2 -13 -7 -9 -6 4 -4 0 6 -8 10 -9 18
-19 18 -24 -1 -4 6 -16 14 -26 8 -9 15 -22 15 -28 0 -5 3 -8 8 -6 4 2 15 -4
25 -15 9 -10 14 -18 10 -18 -5 0 -3 -4 3 -8 12 -8 49 -84 46 -94 -1 -5 3 -8 9
-8 5 0 8 -4 4 -9 -3 -5 -1 -12 5 -16 5 -3 10 -15 10 -26 0 -10 4 -19 10 -19 5
0 7 -6 4 -14 -3 -7 2 -16 10 -19 9 -4 16 -18 16 -32 0 -14 4 -25 9 -25 7 0 15
-27 23 -87 1 -7 6 -13 11 -13 6 0 8 -3 4 -6 -3 -4 1 -13 9 -21 8 -8 12 -19 9
-24 -4 -5 -2 -9 4 -9 8 0 25 -50 21 -66 -1 -3 7 -12 17 -21 10 -8 11 -11 3 -7
-11 6 -10 2 3 -13 9 -11 14 -23 10 -26 -3 -4 -1 -7 5 -7 7 0 12 -6 12 -14 0
-7 7 -19 15 -26 8 -6 14 -15 13 -18 -1 -4 3 -17 10 -28 6 -12 8 -24 5 -28 -3
-3 -1 -6 6 -6 7 0 9 -4 6 -10 -3 -5 -1 -10 6 -10 7 0 10 -3 6 -6 -3 -4 0 -19
8 -34 8 -15 11 -31 7 -35 -4 -5 -1 -5 6 -1 11 7 17 -12 13 -37 -1 -5 3 -6 8
-3 5 3 11 -1 15 -9 3 -8 12 -15 21 -15 8 0 15 -5 15 -12 0 -6 3 -8 7 -5 3 4
17 0 29 -8 13 -8 25 -11 28 -6 3 4 19 7 36 6 16 -1 30 2 30 7 0 4 9 8 19 8 11
0 27 7 35 16 9 9 22 17 29 19 39 10 57 19 57 29 0 7 3 6 9 -2 6 -10 10 -10 20
2 7 8 18 13 25 10 6 -2 21 3 32 13 19 17 26 20 64 28 8 2 29 9 45 16 36 14 52
19 82 22 12 1 21 6 20 11 -1 5 12 10 28 11 17 1 38 5 48 8 9 4 25 10 35 14 9
3 26 8 36 10 11 2 29 11 40 21 11 9 16 11 12 5 -9 -16 -6 -16 37 2 19 8 37 11
41 8 3 -4 6 -2 6 4 0 5 6 10 13 11 6 0 19 3 27 5 8 2 36 10 62 17 26 7 46 15
44 19 -3 4 7 8 21 9 14 1 33 8 41 15 13 10 14 9 7 -3 -7 -12 -6 -13 7 -3 8 7
18 10 21 6 4 -3 7 -1 7 5 0 6 6 9 14 6 8 -3 17 -1 21 5 9 15 28 14 19 -1 -4
-7 2 -5 13 4 11 10 24 18 29 18 5 0 22 7 37 15 18 9 25 10 20 2 -5 -9 -3 -9 9
0 8 7 18 10 21 6 4 -3 7 -1 7 6 0 7 5 11 12 9 7 -3 28 3 47 13 23 11 38 13 42
7 4 -5 9 -2 13 7 3 9 10 14 15 11 5 -3 25 1 45 9 20 8 36 12 36 8 0 -5 4 -2 8
4 4 7 18 14 30 16 12 2 24 6 28 9 3 4 12 4 20 1 8 -3 14 1 14 8 0 7 3 10 6 6
4 -3 22 0 40 8 19 8 37 14 39 15 3 0 6 0 8 1 1 0 13 2 26 5 14 2 31 9 38 16 7
6 16 8 19 5 3 -3 17 1 31 8 14 7 32 11 41 8 10 -4 13 -2 8 5 -6 10 11 15 40
11 4 0 11 5 15 13 7 11 9 10 9 -1 0 -11 5 -10 20 4 18 17 30 21 78 27 6 1 12
5 12 10 0 5 5 6 10 3 6 -4 18 -1 27 7 14 11 15 11 9 0 -7 -11 -4 -11 12 -1 12
7 19 15 17 19 -2 3 17 5 41 5 24 0 44 -3 44 -8 0 -4 4 -6 9 -2 5 3 15 0 23 -7
7 -7 22 -14 33 -16 11 -2 27 -12 37 -23 9 -10 23 -19 32 -19 9 0 16 -7 16 -15
0 -13 6 -17 26 -14 3 0 12 -7 18 -17 8 -10 20 -15 29 -11 9 3 20 0 24 -8 5 -8
23 -15 42 -17 18 -1 35 -8 38 -14 3 -7 13 -11 24 -9 11 2 17 0 14 -6 -5 -8 4
-10 30 -9 3 1 13 -6 21 -15 9 -8 20 -13 25 -10 5 4 9 1 9 -5 0 -6 4 -9 9 -5 6
3 14 -3 20 -12 8 -13 10 -14 11 -4 0 12 3 11 13 -2 6 -10 23 -19 37 -22 14 -3
26 -9 28 -15 2 -6 7 -8 12 -5 5 3 16 -2 24 -11 9 -9 23 -13 31 -10 8 3 15 1
15 -5 0 -6 7 -9 15 -5 8 3 15 1 15 -4 0 -6 7 -10 16 -10 9 0 12 -5 8 -12 -4
-7 -3 -8 5 -4 6 4 25 0 43 -8 17 -9 37 -16 45 -16 7 0 13 -4 13 -9 0 -5 7 -12
16 -15 8 -3 12 -2 9 4 -3 6 10 1 29 -11 20 -12 36 -18 36 -14 0 3 7 -1 16 -9
8 -9 20 -14 25 -11 5 4 9 1 9 -5 0 -6 5 -8 10 -5 6 3 10 2 10 -4 0 -6 7 -8 15
-5 8 4 15 1 15 -6 0 -7 7 -10 15 -6 8 3 15 1 15 -4 0 -11 39 -25 63 -21 9 1
17 -2 17 -7 0 -13 70 -21 77 -9 4 6 1 7 -7 2 -9 -5 -11 -4 -6 4 6 9 11 9 24
-1 10 -8 13 -9 9 -1 -7 12 9 20 60 29 15 3 33 10 40 16 7 6 13 8 13 4 0 -3 9
3 20 14 11 11 20 24 20 30 0 5 5 10 11 10 5 0 8 4 4 9 -3 5 -1 12 5 16 6 4 8
10 5 15 -3 4 2 11 11 14 8 3 12 10 9 16 -3 5 -1 10 4 10 6 0 11 7 11 15 0 8 5
15 10 15 6 0 10 7 10 15 0 8 4 15 9 15 5 0 16 15 25 34 9 19 20 36 24 38 9 4
73 109 75 123 0 6 9 19 19 29 10 11 18 26 18 33 0 7 5 13 10 13 6 0 10 6 10
13 0 7 9 23 19 34 11 12 17 24 14 27 -4 3 -2 6 4 6 6 0 18 12 28 26 12 18 13
24 4 19 -8 -3 -5 1 6 10 11 9 20 19 20 23 0 4 10 22 23 39 13 18 20 37 17 43
-3 5 1 10 10 10 9 0 14 4 10 9 -3 6 3 14 12 20 10 6 14 11 10 11 -4 0 -3 6 3
12 6 7 18 22 26 33 9 11 13 13 9 5 -4 -9 0 -8 8 3 9 10 21 19 29 21 7 1 19 5
26 9 6 5 12 5 12 1 0 -4 9 5 21 20 11 14 25 24 30 21 5 -4 9 -2 9 3 0 9 45 23
85 26 11 1 27 5 35 9 8 4 24 8 35 10 11 1 26 6 33 10 7 5 12 3 12 -3 0 -6 5
-8 13 -3 13 8 12 8 77 18 25 3 59 9 75 12 17 3 40 6 53 6 12 1 22 4 22 7 0 3
10 6 23 7 45 2 92 9 102 15 6 4 25 5 43 4 17 -1 32 0 32 3 0 3 21 6 47 5 27 0
54 5 61 13 8 7 18 11 23 8 5 -4 9 1 9 9 0 9 5 16 10 16 6 0 9 3 9 8 -4 21 2
32 13 26 8 -5 9 -2 5 9 -3 9 -2 19 3 22 5 3 8 28 7 55 -1 28 0 50 3 50 3 0 6
24 7 53 1 47 6 86 17 142 3 11 5 20 7 20 1 0 3 9 4 20 6 45 16 89 24 104 5 9
6 22 3 30 -2 7 2 17 9 22 11 7 11 9 1 9 -9 0 -10 5 -3 19 6 10 7 21 4 25 -3 3
-2 6 4 6 5 0 9 10 8 22 -1 13 3 29 9 37 9 12 8 13 -4 6 -12 -7 -13 -6 -3 6 7
9 14 53 15 102 2 48 7 87 12 87 5 0 3 6 -3 13 -6 8 -8 17 -4 21 10 10 13 36 4
36 -8 0 -6 272 3 307 3 14 0 23 -6 23 -7 0 -3 7 8 15 10 8 14 15 9 15 -13 0
-14 40 -2 40 5 0 7 9 4 20 -3 11 -1 23 4 26 5 3 7 10 4 15 -4 5 1 9 9 9 12 0
24 19 32 53 1 4 3 9 4 12 1 3 4 10 5 15 1 6 4 13 5 18 1 4 2 10 1 14 0 4 11
16 26 27 14 12 23 21 19 21 -4 0 7 13 24 30 17 16 28 30 25 30 -3 0 0 6 7 14
7 8 17 11 22 8 5 -3 6 -1 3 5 -3 5 11 29 33 53 22 24 37 47 34 52 -3 5 -2 7 3
6 4 -2 27 16 49 40 23 23 40 42 37 42 -5 0 33 41 101 110 27 27 53 47 57 44 5
-3 9 -1 9 4 0 6 28 24 63 41 34 17 56 31 48 31 -11 0 -9 4 5 15 16 13 17 16 4
25 -8 5 -10 10 -4 10 6 0 11 7 11 15 0 8 -6 15 -14 15 -7 0 -13 7 -13 15 0 7
-8 19 -17 24 -10 6 -14 11 -10 11 4 0 3 9 -3 20 -9 17 -3 32 36 90 25 38 53
75 60 81 8 6 14 17 14 24 0 7 7 15 15 19 8 3 14 9 13 13 -2 4 12 23 30 42 17
19 32 38 32 42 0 5 13 22 30 39 16 16 26 30 22 30 -3 0 4 7 16 16 12 8 22 22
22 30 0 8 4 14 9 14 5 0 13 9 16 20 4 11 11 18 16 15 5 -4 9 1 9 9 0 9 5 16
11 16 6 0 8 7 5 16 -3 8 -2 12 4 9 5 -3 12 6 16 20 3 14 11 25 16 25 7 0 6 5
-1 13 -6 8 -8 17 -4 20 3 4 1 7 -5 7 -7 0 -12 9 -12 20 0 11 -4 20 -10 20 -5
0 -10 5 -10 11 0 5 6 7 13 3 6 -4 -4 9 -23 27 -19 19 -38 33 -42 31 -5 -2 -8
1 -8 7 0 5 -12 16 -27 23 -49 25 -78 43 -85 52 -3 5 -15 11 -24 12 -10 2 -24
11 -31 20 -7 10 -13 12 -13 6 0 -7 -9 -3 -20 8 -11 11 -27 20 -35 20 -8 0 -15
3 -15 8 0 4 -20 20 -45 35 -25 16 -45 33 -45 39 0 5 -4 7 -8 4 -5 -3 -8 8 -8
25 0 16 2 29 6 29 5 0 8 22 13 108 1 12 5 22 8 22 4 0 9 17 12 38 3 20 8 47
11 59 3 14 0 23 -7 23 -8 0 -8 3 1 9 14 9 13 32 -3 43 -6 5 -5 8 4 8 7 0 11 6
7 15 -3 8 -1 15 5 15 6 0 9 8 8 18 -1 9 1 25 5 34 4 9 9 25 11 35 2 10 4 18 5
18 2 0 7 22 13 50 2 8 6 18 10 21 10 11 8 26 -2 19 -5 -3 -3 8 5 25 9 16 13
34 9 40 -3 5 -1 10 5 10 7 0 10 7 6 15 -3 8 -1 15 5 15 6 0 9 7 6 15 -4 8 -2
17 4 20 5 4 7 11 4 16 -4 5 -1 9 5 9 6 0 8 5 5 10 -3 6 -2 10 4 10 6 0 8 7 4
16 -3 9 0 20 8 25 12 7 12 9 -1 9 -12 0 -12 2 -2 9 7 4 14 18 15 29 1 12 4 22
7 22 4 0 6 10 5 23 -1 12 2 28 8 35 5 6 6 12 2 12 -4 0 -3 6 2 13 6 6 9 22 8
34 -1 12 2 20 7 17 4 -3 9 5 10 18 2 43 3 47 12 55 5 5 6 2 1 -6 -5 -9 -4 -12
3 -7 6 3 9 15 7 26 -2 11 2 20 8 20 7 0 6 4 -3 10 -10 7 -12 12 -4 18 11 7 29
60 26 75 -1 4 3 7 9 7 6 0 8 9 4 21 -5 16 -4 19 5 14 10 -6 12 -1 8 18 -3 17
0 28 10 32 11 4 12 8 2 20 -6 8 -9 19 -6 24 4 5 1 13 -5 17 -8 5 -8 8 1 14 8
5 8 11 -3 21 -7 8 -12 20 -9 27 3 10 -16 17 -40 13 -5 0 -8 3 -8 8 0 5 -7 12
-16 15 -10 4 -13 2 -8 -7 6 -9 5 -9 -8 0 -8 7 -18 10 -21 6 -4 -3 -7 -2 -7 3
0 5 -10 11 -22 12 -38 4 -52 7 -65 15 -7 5 -17 5 -23 2 -5 -3 -10 -2 -10 3 0
5 -7 9 -15 10 -8 1 -22 3 -30 4 -8 1 -15 5 -15 10 0 5 -4 6 -10 3 -5 -3 -16
-3 -22 2 -7 4 -19 8 -26 9 -8 2 -21 6 -30 10 -9 4 -28 9 -42 11 -13 2 -27 7
-30 11 -3 4 -12 9 -20 11 -29 6 -35 8 -70 22 -19 7 -38 12 -42 11 -5 -1 -8 3
-8 9 0 5 -4 7 -10 4 -5 -3 -10 -1 -10 6 0 7 -3 9 -6 6 -10 -10 -65 26 -60 39
2 6 -1 17 -7 23 -8 8 -8 11 1 11 7 0 3 11 -10 24 -13 13 -25 22 -27 20 -2 -2
-10 3 -18 11 -8 8 -23 15 -34 15 -11 0 -17 5 -14 10 6 10 -7 14 -32 11 -7 -1
-13 3 -13 9 0 5 -3 9 -7 8 -13 -5 -93 25 -93 33 0 5 -6 6 -14 3 -8 -3 -17 0
-21 5 -3 6 -11 9 -16 6 -5 -4 -9 0 -9 7 0 9 -3 9 -10 -2 -5 -8 -10 -10 -10 -4
0 8 -21 11 -60 10 -33 0 -60 -5 -60 -10 0 -5 -8 -2 -17 5 -15 12 -16 12 -8 -1
8 -13 7 -13 -11 0 -30 22 -85 80 -76 80 4 0 -1 5 -10 11 -10 5 -18 17 -18 24
0 8 -4 15 -10 15 -5 0 -10 7 -10 15 0 8 -5 15 -11 15 -6 0 -9 7 -5 15 3 8 1
15 -5 15 -6 0 -7 5 -4 10 3 6 1 10 -5 10 -6 0 -9 4 -5 9 3 5 -2 16 -10 25 -8
8 -14 19 -13 23 4 14 -25 82 -33 77 -5 -2 -6 4 -4 15 2 11 -3 25 -11 31 -7 7
-11 17 -8 22 3 5 -2 16 -12 24 -11 9 -12 12 -4 8 10 -5 9 0 -4 14 -11 12 -15
22 -10 22 5 0 1 5 -10 11 -15 9 -16 13 -5 20 11 7 10 9 -4 9 -9 0 -16 3 -16 8
1 4 0 10 -1 15 -1 4 -3 10 -5 15 -6 21 -20 48 -32 60 -7 8 -11 18 -8 23 4 5 2
9 -2 9 -5 0 -14 9 -21 21 -11 17 -11 20 0 13 8 -5 7 0 -3 12 -14 17 -52 90
-54 104 0 3 -6 15 -13 26 -6 12 -8 24 -5 28 3 3 2 6 -3 6 -6 0 -16 16 -24 35
-8 19 -18 35 -22 35 -5 0 -7 4 -4 8 3 5 -2 21 -10 36 -7 16 -14 37 -14 47 0
18 -18 57 -31 69 -3 3 -11 20 -18 38 -8 17 -17 32 -22 32 -5 0 -6 7 -3 15 4 8
1 15 -7 15 -7 0 -9 3 -6 6 4 4 -3 15 -15 25 -11 11 -18 19 -14 19 3 0 -1 15
-11 33 -9 17 -16 35 -15 40 1 4 -3 7 -9 7 -5 0 -8 4 -4 9 3 5 -2 16 -10 24 -8
9 -15 21 -15 27 0 7 -10 26 -22 43 -12 17 -16 27 -8 22 8 -5 5 4 -8 19 -12 16
-22 35 -22 42 0 8 -4 14 -10 14 -6 0 -9 6 -8 13 2 6 -3 11 -10 9 -8 -1 -11 2
-7 7 3 6 -6 34 -20 62 -14 29 -25 59 -25 66 0 7 -5 13 -11 13 -5 0 -7 5 -4 10
3 6 2 10 -4 10 -6 0 -8 7 -5 15 4 8 -1 17 -9 21 -9 3 -14 14 -12 26 3 11 1 18
-2 14 -8 -8 -78 134 -74 153 1 7 -2 11 -7 7 -5 -3 -15 17 -22 44 -8 28 -18 50
-22 50 -5 0 -7 4 -3 9 3 5 1 12 -5 16 -6 4 -8 11 -5 16 4 5 1 9 -4 9 -6 0 -11
5 -11 11 0 5 6 7 13 4 6 -4 1 3 -13 15 -14 12 -18 19 -10 15 10 -4 9 -2 -2 8
-10 8 -15 17 -12 20 3 3 -2 4 -13 3 -10 -2 -21 2 -25 8 -5 7 -8 6 -8 -4 0 -13
-1 -13 -10 0 -8 12 -10 12 -10 -5z"/>
</g>
</svg>
